<svg viewBox="0 0 108 34" fill="none" xmlns="http://www.w3.org/2000/svg">
<path d="M1 4.25853C10.517 13.9709 15.1115 11.6265 21.0186 5.93317C29.8793 -1.76983 32.5739 1.8244 38.4118 5.93317C46.4448 13.6617 47.2653 12.3624 55.805 5.93317C64.3446 -0.496038 67.1157 1.32978 71.5573 5.93317C79.4176 14.6239 83.1646 13.3974 89.2786 5.93317C98.534 -2.03155 101.553 0.904641 107 5.93317" stroke-width="2"/>
<path d="M1 14.9623C10.517 23.7917 15.1115 21.6605 21.0186 16.4847C29.8793 9.48198 32.5739 12.7495 38.4118 16.4847C46.4448 23.5106 47.2653 22.3294 55.805 16.4847C64.3446 10.64 67.1157 12.2998 71.5573 16.4847C79.4176 24.3854 83.1646 23.2704 89.2786 16.4847C98.534 9.24405 101.553 11.9133 107 16.4847"  stroke-width="2"/>
<path d="M1 25.2585C10.517 34.9709 15.1115 32.6265 21.0186 26.9332C29.8793 19.2302 32.5739 22.8244 38.4118 26.9332C46.4448 34.6617 47.2653 33.3624 55.805 26.9332C64.3446 20.504 67.1157 22.3298 71.5573 26.9332C79.4176 35.6239 83.1646 34.3974 89.2786 26.9332C98.534 18.9685 101.553 21.9046 107 26.9332"  stroke-width="2"/>
</svg>
